<?xml version="1.0" encoding="UTF-8"?>
<svg width="44px" height="44px" viewBox="0 0 44 44" version="1.1" xmlns="http://www.w3.org/2000/svg" xmlns:xlink="http://www.w3.org/1999/xlink">
    <!-- Generator: Sketch 54.1 (76490) - https://sketchapp.com -->
    <title>facebook</title>
    <desc>Created with Sketch.</desc>
    <g id="Social-Icons" stroke="none" stroke-width="1" fill="none" fill-rule="evenodd">
        <g id="social-icons" transform="translate(-40.000000, -40.000000)">
            <g id="facebook" transform="translate(40.000000, 40.000000)">
                <rect id="Rectangle" x="0" y="0" width="44" height="44"></rect>
                <circle id="Oval" fill="#FA5C66" cx="22" cy="22" r="22"></circle>
                <path d="M19.4372418,34 L18.4372418,34 L19.4372418,35 L19.4372418,34 Z M17,22.4985483 L16,22.4985483 L17,23.4985483 L17,22.4985483 Z M17,20.535534 L17,19.535534 L16,20.535534 L17,20.535534 Z M25.9776468,13 L26.9776468,13 L25.9776468,12 L25.9776468,13 Z M25.9776468,14.964466 L25.9776468,15.964466 L26.9776468,14.964466 L25.9776468,14.964466 Z M25.8852315,20.535534 L27,20.535534 L26.0058732,19.4273126 L25.8852315,20.535534 Z M25.6715364,22.4985483 L25.5744568,23.390327 L26.5685836,22.4985483 L25.6715364,22.4985483 Z M22.3139606,34 L22.3139606,36 L23.3147057,36 L23.3147057,34 L22.3139606,34 Z" id="Shape" stroke="#FFFFFF" stroke-width="2" fill="#FFFFFF"></path>
            </g>
        </g>
    </g>
</svg>