<?xml version="1.0" encoding="UTF-8"?>
<svg width="44px" height="44px" viewBox="0 0 44 44" version="1.1" xmlns="http://www.w3.org/2000/svg" xmlns:xlink="http://www.w3.org/1999/xlink">
    <!-- Generator: Sketch 54.1 (76490) - https://sketchapp.com -->
    <title>facebook</title>
    <desc>Created with Sketch.</desc>
    <g id="Social-Icons" stroke="none" stroke-width="1" fill="none" fill-rule="evenodd">
        <g id="social-icons" transform="translate(-40.000000, -40.000000)">
            <g id="facebook" transform="translate(40.000000, 40.000000)">
                <path d="M43.8476015,21.9238008 C43.8476015,9.81655172 34.0310498,0 21.9238008,0 C9.81655172,0 0,9.81655172 0,21.9238008 C0,32.8656398 8.01609195,41.936046 18.4985441,43.58259 L18.4985441,28.2626667 L12.9304368,28.2626667 L12.9304368,21.9238008 L18.4985441,21.9238008 L18.4985441,17.092567 C18.4985441,11.5984674 21.772751,8.56162452 26.7796475,8.56162452 C29.1782375,8.56162452 31.6879234,8.99016092 31.6879234,8.99016092 L31.6879234,14.3856398 L28.9223295,14.3856398 C26.2000613,14.3856398 25.3490575,16.0751724 25.3490575,17.8108966 L25.3490575,21.9236322 L31.4288123,21.9236322 L30.4576092,28.2624981 L25.3488889,28.2624981 L25.3488889,43.5824215 C35.831341,41.9389119 43.847433,32.8685057 43.847433,21.9236322 L43.8476015,21.9238008 Z" id="Path" fill="#FA5C66"></path>
                <path d="M30.4577778,28.2624981 L31.4289808,21.9236322 L25.3492261,21.9236322 L25.3492261,17.8108966 C25.3492261,16.0782069 26.1970268,14.3856398 28.9224981,14.3856398 L31.688092,14.3856398 L31.688092,8.99016092 C31.688092,8.99016092 29.1785747,8.56162452 26.7798161,8.56162452 C21.7729195,8.56162452 18.4987126,11.595433 18.4987126,17.092567 L18.4987126,21.9238008 L12.9306054,21.9238008 L12.9306054,28.2626667 L18.4987126,28.2626667 L18.4987126,43.58259 C19.614728,43.7580843 20.7585594,43.8476015 21.9239693,43.8476015 C23.0893793,43.8476015 24.2332107,43.7550498 25.3492261,43.58259 L25.3492261,28.2626667 L30.4579464,28.2626667 L30.4577778,28.2624981 Z" id="Path" fill="#FEFEFE"></path>
            </g>
        </g>
    </g>
</svg>