<?xml version="1.0" encoding="UTF-8"?>
<svg width="44px" height="44px" viewBox="0 0 44 44" version="1.1" xmlns="http://www.w3.org/2000/svg" xmlns:xlink="http://www.w3.org/1999/xlink">
    <g id="Social-Icons" stroke="none" stroke-width="1" fill="none" fill-rule="evenodd">
        <g id="social-icons" transform="translate(-40.000000, -40.000000)">
            <g id="facebook" transform="translate(40.000000, 40.000000)">
                <rect id="Rectangle" x="0" y="0" width="44" height="44"></rect>
                <circle id="Oval" fill="#FA5C66" cx="22" cy="22" r="22"></circle>
                <path d="M30.4577778,28.2624981 L31.4289808,21.9236322 L25.3492261,21.9236322 L25.3492261,17.8108966 C25.3492261,16.0782069 26.1970268,14.3856398 28.9224981,14.3856398 L31.688092,14.3856398 L31.688092,8.99016092 C31.688092,8.99016092 29.1785747,8.56162452 26.7798161,8.56162452 C21.7729195,8.56162452 18.4987126,11.595433 18.4987126,17.092567 L18.4987126,21.9238008 L12.9306054,21.9238008 L12.9306054,28.2626667 L18.4987126,28.2626667 L18.4987126,43.58259 C19.614728,43.7580843 20.7585594,43.8476015 21.9239693,43.8476015 C23.0893793,43.8476015 24.2332107,43.7550498 25.3492261,43.58259 L25.3492261,28.2626667 L30.4579464,28.2626667 L30.4577778,28.2624981 Z" fill="#FFFFFF"></path>
            </g>
        </g>
    </g>
</svg>