<?xml version="1.0" encoding="UTF-8"?>
<svg width="44px" height="44px" viewBox="0 0 44 44" version="1.1" xmlns="http://www.w3.org/2000/svg" xmlns:xlink="http://www.w3.org/1999/xlink">
    <!-- Generator: Sketch 54.1 (76490) - https://sketchapp.com -->
    <title>soundcloud2</title>
    <desc>Created with Sketch.</desc>
    <g id="Social-Icons" stroke="none" stroke-width="1" fill="none" fill-rule="evenodd">
        <g id="social-icons" transform="translate(-520.000000, -40.000000)">
            <g id="soundcloud2" transform="translate(520.000000, 40.000000)">
                <rect id="Rectangle" x="0" y="0" width="44" height="44"></rect>
                <circle id="Oval" fill="#FA5C66" fill-rule="nonzero" cx="22" cy="22" r="22"></circle>
                <path d="M26.8941556,28.0501611 C29.2936033,27.4325817 31.4601933,25.1748735 31.8550391,22.907041 L31.9664059,22.2185919 L32.2802577,22.3097101 C32.4422458,22.3502071 33.0395766,22.3907041 33.5964105,22.3907041 C34.5177175,22.3907041 34.659457,22.3603314 35.1960424,22.0971008 C35.8946158,21.742752 36.6539347,20.9631846 37.0487805,20.2038657 C37.3018868,19.7280258 37.3322596,19.5457893 37.3423838,18.7459734 C37.3423838,17.9562817 37.3018868,17.7537966 37.069029,17.247584 C36.7248044,16.5186379 35.864243,15.6682007 35.0745513,15.2834791 L34.5075932,15 L28.5039117,15.0101243 C24.5352048,15.0101243 22.4698574,15.0506213 22.3989876,15.1214911 C22.3281178,15.1923608 22.2774966,17.3791993 22.2369996,21.3884032 C22.1661298,28.4146342 22.0648873,27.7059365 23.1481822,28.0197884 C23.9884952,28.2627704 26.0335941,28.2728947 26.8941556,28.0501611 Z M20.2728946,26.5517718 C20.3538886,26.4606535 20.4348827,25.114128 20.5260009,22.4818224 C20.6373677,19.1813162 20.6272435,18.2701335 20.5158767,16.8729867 C20.4247584,15.8099402 20.3336401,15.1822366 20.2526461,15.1316153 C20.0400368,15 19.604694,15.0404971 19.4629545,15.2227336 C19.3515877,15.3543489 19.3110907,16.1339163 19.2908422,19.0901979 C19.2503452,23.3930051 19.3617119,26.278417 19.564197,26.5315233 C19.726185,26.7340083 20.1109066,26.7441326 20.2728946,26.5517718 Z M14.1375978,25.3368615 C14.1679706,25.2659918 14.2692131,23.7068569 14.3704556,21.864243 C14.5425679,18.6346066 14.5425679,18.45237 14.3704556,16.9033595 C14.2692131,16.0326738 14.1578463,15.2531064 14.1375978,15.1822366 C14.066728,15.0101243 13.5098942,15.0101243 13.4491487,15.1822366 C13.4187759,15.2429821 13.3377819,16.0326738 13.2466636,16.923608 C13.1150483,18.371376 13.1150483,18.8978371 13.2567879,21.9351128 C13.3782789,24.6787851 13.4390244,25.3469858 13.5605154,25.4381041 C13.7326277,25.5798436 14.066728,25.5190981 14.1375978,25.3368615 Z M17.276116,24.9723885 C17.316613,24.6686609 17.4077313,23.0892775 17.478601,21.4693972 C17.5798435,18.9180856 17.5798435,18.3106305 17.438104,16.8932352 C17.35711,15.9921768 17.235619,15.2024851 17.1748735,15.1417396 C17.1141279,15.0809941 16.9420157,15.0506213 16.7800276,15.0708698 C16.4256788,15.1113668 16.3851818,15.2632306 16.2535665,17.0957203 C16.1320755,18.6447308 16.2839393,24.9521399 16.4459273,25.35711 C16.5167971,25.5494708 16.5977911,25.5899678 16.8711459,25.5595951 C17.1849977,25.5292223 17.195122,25.5089738 17.276116,24.9723885 Z M11.0092039,23.6663599 C11.0395766,23.6157387 11.1610677,22.4312012 11.2825587,21.0239301 L11.5052922,18.4726185 L11.2825587,16.8426139 C11.1610677,15.9516798 11.0395766,15.1822366 11.0092039,15.1316153 C10.9788311,15.0911183 10.8472158,15.0506213 10.7257248,15.0506213 C10.4422458,15.0506213 10.4422458,15.0708698 10.209388,17.0754717 C10.0575242,18.330879 10.0575242,18.6447308 10.2195122,20.9733088 C10.3207547,22.3704556 10.4422458,23.5651174 10.492867,23.6359872 C10.6042338,23.7777267 10.9282099,23.7979752 11.0092039,23.6663599 Z M8.02254947,20.3456052 C8.45789232,18.6953521 8.46801657,18.5536126 8.23515877,17.5006903 C8.11366774,16.964105 7.95167971,16.4578924 7.8909342,16.3870226 C7.61757939,16.1035435 7.45559135,16.3667741 7.22273355,17.4298206 L7,18.4827428 L7.2126093,19.5052923 C7.45559135,20.6797055 7.4657156,20.7202025 7.72894616,20.7202025 C7.87068569,20.7202025 7.95167971,20.6088358 8.02254947,20.3456052 Z" id="Shape" fill="#FFFFFF" fill-rule="nonzero" transform="translate(22.171192, 21.604974) scale(-1, 1) rotate(180.000000) translate(-22.171192, -21.604974) "></path>
            </g>
        </g>
    </g>
</svg>