
<svg width="249px" height="184px" viewBox="0 0 249 184" version="1.1" xmlns="http://www.w3.org/2000/svg" xmlns:xlink="http://www.w3.org/1999/xlink">
    <defs>
        <ellipse id="path-1" cx="17.5" cy="40" rx="17.5" ry="40"></ellipse>
        <ellipse id="path-3" cx="17.5" cy="40" rx="17.5" ry="40"></ellipse>
    </defs>
    <g id="Page-1" stroke="none" stroke-width="1" fill="none" fill-rule="evenodd">
        <g id="Logo-Solid">
            <g id="Headphones">
                <g id="headband" transform="translate(34.000000, 0.000000)">
                    <ellipse id="Oval" fill="#000000" cx="91.5" cy="60" rx="89.5" ry="60"></ellipse>
                    <ellipse id="Oval" fill="#FFFFFF" cx="91.5" cy="75" rx="74.5" ry="60"></ellipse>
                    <rect id="Rectangle" fill="#FFFFFF" x="0" y="57" width="185" height="44"></rect>
                </g>
                <g id="left-ear" transform="translate(0.000000, 63.000000)">
                    <g id="ear-end" transform="translate(0.000000, 18.000000)">
                        <mask id="mask-2" fill="white">
                            <use xlink:href="#path-1"></use>
                        </mask>
                        <use id="Oval" fill="#000000" xlink:href="#path-1"></use>
                        <rect id="Rectangle" fill="#FFFFFF" mask="url(#mask-2)" x="17" y="-1" width="18" height="85"></rect>
                    </g>
                    <g id="ear-bar" transform="translate(25.000000, 0.000000)" fill="#000000">
                        <rect id="Rectangle" x="0" y="14" width="35" height="90"></rect>
                        <ellipse id="Oval" cx="17.5" cy="14" rx="17.5" ry="14"></ellipse>
                        <ellipse id="Oval-Copy" cx="17.5" cy="103" rx="17.5" ry="14"></ellipse>
                    </g>
                </g>
                <g id="right-ear" transform="translate(219.000000, 121.500000) scale(-1, 1) translate(-219.000000, -121.500000) translate(189.000000, 63.000000)">
                    <g id="ear-end" transform="translate(0.000000, 18.000000)">
                        <mask id="mask-4" fill="white">
                            <use xlink:href="#path-3"></use>
                        </mask>
                        <use id="Oval" fill="#000000" xlink:href="#path-3"></use>
                        <rect id="Rectangle" fill="#FFFFFF" mask="url(#mask-4)" x="17" y="-1" width="18" height="85"></rect>
                    </g>
                    <g id="ear-bar" transform="translate(25.000000, 0.000000)" fill="#000000">
                        <rect id="Rectangle" x="0" y="14" width="35" height="90"></rect>
                        <ellipse id="Oval" cx="17.5" cy="14" rx="17.5" ry="14"></ellipse>
                        <ellipse id="Oval-Copy" cx="17.5" cy="103" rx="17.5" ry="14"></ellipse>
                    </g>
                </g>
            </g>
            <g id="peach-alone" transform="translate(65.000000, 64.000000)" fill="#000000" fill-rule="nonzero">
                <g id="Group" transform="translate(60.000000, 60.000000) scale(-1, 1) rotate(-180.000000) translate(-60.000000, -60.000000) ">
                    <path d="M58.2047244,118.497653 C57.9212598,117.746479 58.1102362,114.084507 58.6771654,110.422535 C59.2440945,106.85446 59.4330709,103.661972 59.1496063,103.380282 C58.8661417,103.098592 56.8818898,104.413146 54.7086614,106.384977 C47.5275591,112.86385 43.8425197,113.896714 28.8188976,113.896714 C17.007874,113.896714 15.023622,113.615023 10.5826772,111.643192 C7.46456693,110.234742 5.66929134,108.826291 5.66929134,107.887324 C5.66929134,106.00939 8.50393701,103.192488 13.0393701,100.469484 L16.2519685,98.5915493 L12.2834646,95.0234742 C4.34645669,87.7934272 0,76.1502347 0,62.2535211 C0,41.7840376 10.015748,27.3239437 36.3779528,9.76525822 C47.5275591,2.34741784 54.8976378,-0.563380282 61.511811,0.0938967136 C75.496063,1.31455399 99.7795276,18.685446 111.023622,35.5868545 C113.385827,38.9671362 116.314961,45.258216 117.732283,49.4835681 C119.905512,56.056338 120.188976,58.3098592 119.716535,64.8826291 C119.244094,73.7089202 116.314961,82.9107981 112.346457,88.8262911 C109.133858,93.6150235 108.944882,94.6478873 111.496063,94.6478873 C115.181102,94.6478873 113.76378,98.7793427 108.566929,103.474178 C98.2677165,112.676056 77.6692913,114.084507 65.9527559,106.384977 C63.9685039,105.070423 62.1732283,104.037559 61.8897638,104.037559 C61.6062992,104.037559 61.4173228,106.478873 61.4173228,109.577465 C61.4173228,113.239437 61.8897638,115.492958 62.7401575,116.244131 C63.496063,116.807512 63.8740157,117.934272 63.5905512,118.685446 C62.9291339,120.469484 58.9606299,120.375587 58.2047244,118.497653 Z" id="Path"></path>
                </g>
            </g>
        </g>
    </g>
</svg>