<svg width="249px" height="182px" viewBox="0 0 249 182" version="1.1" xmlns="http://www.w3.org/2000/svg" xmlns:xlink="http://www.w3.org/1999/xlink">
    <defs>
        <ellipse id="path-1" cx="17.5" cy="40" rx="17.5" ry="40"></ellipse>
        <ellipse id="path-3" cx="14.5" cy="33.9714286" rx="14.5" ry="33.1428571"></ellipse>
        <ellipse id="path-5" cx="17.5" cy="40" rx="17.5" ry="40"></ellipse>
        <ellipse id="path-7" cx="14.5" cy="33.9714286" rx="14.5" ry="33.1428571"></ellipse>
    </defs>
    <g id="Page-1" stroke="none" stroke-width="1" fill="none" fill-rule="evenodd">
        <g id="Headphones-Outline">
            <g id="headband" transform="translate(34.000000, 0.000000)">
                <ellipse id="Oval" fill="#000000" cx="91.5" cy="60" rx="89.5" ry="60"></ellipse>
                <ellipse id="Oval" fill="#FFFFFF" cx="91.5" cy="75" rx="74.5" ry="60"></ellipse>
                <rect id="Rectangle" fill="#FFFFFF" x="0" y="57" width="185" height="44"></rect>
            </g>
            <g id="headband-mask" transform="translate(35.000000, 11.000000)" fill="#FFFFFF">
                <ellipse id="Oval" cx="90.5540541" cy="52" rx="84.6621622" ry="60"></ellipse>
                <ellipse id="Oval" cx="90.5540541" cy="67" rx="70.472973" ry="60"></ellipse>
                <rect id="Rectangle" x="4" y="49" width="175" height="44"></rect>
            </g>
            <g id="headband" transform="translate(46.000000, 8.000000)">
                <ellipse id="Oval" fill="#000000" cx="79.5" cy="52.5" rx="77.5" ry="52.5"></ellipse>
                <ellipse id="Oval" fill="#FFFFFF" cx="80" cy="65.5" rx="65" ry="52.5"></ellipse>
                <rect id="Rectangle" fill="#FFFFFF" x="0" y="49" width="161" height="39"></rect>
            </g>
            <g id="headband-mask" transform="translate(47.000000, 17.000000)" fill="#FFFFFF">
                <ellipse id="Oval" cx="79" cy="44.5" rx="73" ry="52.5"></ellipse>
                <ellipse id="Oval" cx="78.5" cy="59.5" rx="61.5" ry="52.5"></ellipse>
                <rect id="Rectangle" x="4" y="42" width="152" height="39"></rect>
            </g>
            <g id="left-ear" transform="translate(0.000000, 63.000000)">
                <g id="ear-end" transform="translate(0.000000, 18.000000)">
                    <mask id="mask-2" fill="white">
                        <use xlink:href="#path-1"></use>
                    </mask>
                    <use id="Oval" fill="#000000" xlink:href="#path-1"></use>
                    <rect id="Rectangle" fill="#FFFFFF" mask="url(#mask-2)" x="17" y="-1" width="18" height="85"></rect>
                </g>
                <g id="ear-end-mask" transform="translate(2.000000, 24.000000)">
                    <mask id="mask-4" fill="white">
                        <use xlink:href="#path-3"></use>
                    </mask>
                    <use id="Oval" fill="#FFFFFF" xlink:href="#path-3"></use>
                    <rect id="Rectangle" fill="#000000" mask="url(#mask-4)" x="13" y="0" width="2" height="68"></rect>
                </g>
                <g id="ear-bar" transform="translate(25.000000, 0.000000)" fill="#000000">
                    <rect id="Rectangle" x="0" y="14" width="35" height="90"></rect>
                    <ellipse id="Oval" cx="17.5" cy="14" rx="17.5" ry="14"></ellipse>
                    <ellipse id="Oval-Copy" cx="17.5" cy="103" rx="17.5" ry="14"></ellipse>
                </g>
                <g id="ear-bar-mask-left" transform="translate(28.000000, 10.000000)" fill="#FFFFFF">
                    <rect id="Rectangle" x="0" y="12.5666667" width="29" height="73.4666667"></rect>
                    <ellipse id="Oval" cx="14.5" cy="12.5666667" rx="14.5" ry="11.6"></ellipse>
                    <ellipse id="Oval-Copy" cx="14.5" cy="85.0666667" rx="14.5" ry="11.6"></ellipse>
                </g>
            </g>
            <g id="right-ear" transform="translate(219.000000, 121.500000) scale(-1, 1) translate(-219.000000, -121.500000) translate(189.000000, 63.000000)">
                <g id="ear-end" transform="translate(0.000000, 18.000000)">
                    <mask id="mask-6" fill="white">
                        <use xlink:href="#path-5"></use>
                    </mask>
                    <use id="Oval" fill="#000000" xlink:href="#path-5"></use>
                    <rect id="Rectangle" fill="#FFFFFF" mask="url(#mask-6)" x="17" y="-1" width="18" height="85"></rect>
                </g>
                <g id="ear-end-mask" transform="translate(2.000000, 24.000000)">
                    <mask id="mask-8" fill="white">
                        <use xlink:href="#path-7"></use>
                    </mask>
                    <use id="Oval" fill="#FFFFFF" xlink:href="#path-7"></use>
                    <rect id="Rectangle" fill="#000000" mask="url(#mask-8)" x="13" y="0" width="2" height="68"></rect>
                </g>
                <g id="ear-bar" transform="translate(25.000000, 0.000000)" fill="#000000">
                    <rect id="Rectangle" x="0" y="14" width="35" height="90"></rect>
                    <ellipse id="Oval" cx="17.5" cy="14" rx="17.5" ry="14"></ellipse>
                    <ellipse id="Oval-Copy" cx="17.5" cy="103" rx="17.5" ry="14"></ellipse>
                </g>
                <g id="ear-bar-mask" transform="translate(28.000000, 10.000000)" fill="#FFFFFF">
                    <rect id="Rectangle" x="0" y="12.5666667" width="29" height="73.4666667"></rect>
                    <ellipse id="Oval" cx="14.5" cy="12.5666667" rx="14.5" ry="11.6"></ellipse>
                    <ellipse id="Oval-Copy" cx="14.5" cy="85.0666667" rx="14.5" ry="11.6"></ellipse>
                </g>
            </g>
        </g>
        <g id="peach-outline" transform="translate(64.000000, 62.000000)" fill="#000000" fill-rule="nonzero">
            <g id="Group" transform="translate(59.905512, 60.232558) scale(-1, 1) rotate(-180.000000) translate(-59.905512, -60.232558) translate(0.000000, 0.558140)">
                <path d="M58.9606299,118.325581 C58.015748,117.302326 57.6377953,115.906977 58.015748,113.953488 C59.3385827,106.418605 59.7165354,102.232558 59.0551181,102.232558 C58.6771654,102.232558 56.5984252,103.72093 54.519685,105.581395 C47.5275591,111.906977 43.7480315,112.930233 28.8188976,112.930233 C17.1023622,112.837209 15.023622,112.55814 10.5826772,110.697674 C7.46456693,109.302326 5.66929134,107.906977 5.66929134,106.976744 C5.66929134,105.116279 8.50393701,102.325581 13.0393701,99.627907 L16.1574803,97.7674419 L12.0944882,93.9534884 C6.99212598,89.3023256 4.15748031,84.1860465 1.79527559,75.7209302 C-1.41732283,63.9069767 -0.094488189,49.3023256 5.1023622,39.4418605 C11.3385827,27.627907 34.015748,8.8372093 50.0787402,2.23255814 C55.0866142,0.186046512 57.1653543,-0.186046512 61.511811,0.186046512 C66.6141732,0.651162791 79.4645669,5.6744186 80.1259843,7.53488372 C80.3149606,7.90697674 80.976378,8.27906977 81.5433071,8.27906977 C82.2047244,8.27906977 85.1338583,10.1395349 88.1574803,12.4651163 C110.173228,28.744186 120.944882,46.5116279 119.716535,64.2790698 C119.527559,68 119.055118,71.9069767 118.771654,72.9302326 C117.259843,78.6976744 114.708661,84.5581395 112.346457,88.0930233 C109.133858,92.8372093 108.944882,93.8604651 111.496063,93.8604651 C112.818898,93.8604651 113.385827,94.5116279 113.385827,96.0930233 C113.385827,99.5348837 105.070866,106.418605 98.4566929,108.372093 C87.4015748,111.72093 70.8661417,110.046512 65.3858268,105.023256 C64.2519685,104 62.9291339,103.162791 62.3622047,103.162791 C60.8503937,103.162791 61.1338583,113.860465 62.7401575,115.255814 C63.496063,115.813953 63.8740157,116.930233 63.6850394,117.581395 C62.8346457,119.627907 60.6614173,119.906977 58.9606299,118.325581 Z M42.7086614,108.744186 C46.7716535,107.534884 50.3622047,105.581395 53.1968504,103.162791 C57.0708661,99.7209302 57.9212598,99.4418605 60.9448819,100 C62.7401575,100.27907 65.2913386,101.395349 66.519685,102.325581 C70.3937008,105.302326 76.6299213,106.883721 85.1338583,106.883721 C95.8110236,106.883721 102.141732,104.930233 107.905512,99.627907 L110.456693,97.3023256 L108.472441,94.7906977 L106.582677,92.1860465 L109.984252,86.6976744 C115.181102,78.3255814 116.503937,72.9302326 116.031496,60.372093 C115.748031,50.0465116 115.559055,49.2093023 112.15748,42.5116279 C103.84252,25.8604651 76.6299213,4.46511628 61.984252,2.97674419 C55.8425197,2.41860465 49.0393701,4.8372093 39.023622,11.255814 C24.0944882,20.8372093 12.0944882,32 7.55905512,40.5581395 C2.74015748,49.6744186 1.51181102,62.9767442 4.34645669,74.9767442 C6.04724409,82.2325581 8.12598425,86.0465116 13.984252,92.1860465 C18.8031496,97.3023256 18.8976378,100.27907 14.2677165,102.232558 C12.7559055,102.790698 10.7716535,104.093023 9.92125984,105.023256 C8.50393701,106.604651 8.5984252,106.790698 12.9448819,108.093023 C19.6535433,110.232558 20.5984252,110.418605 28.9133858,110.511628 C34.2047244,110.604651 38.5511811,110.046512 42.7086614,108.744186 Z" id="Shape"></path>
            </g>
        </g>
    </g>
</svg>